<svg xmlns="http://www.w3.org/2000/svg" version="1.1" xmlns:xlink="http://www.w3.org/1999/xlink" xmlns:svgjs="http://svgjs.com/svgjs" width="30" height="30" x="0" y="0" viewBox="0 0 24 24" style="enable-background:new 0 0 512 512" xml:space="preserve" class=""><g><g xmlns="http://www.w3.org/2000/svg"><path d="M6.146,17.146,4.5,18.793l-.646-.647a.5.5,0,0,0-.708.708l1,1a.5.5,0,0,0,.708,0l2-2a.5.5,0,0,0-.708-.708Z" fill="#000000" data-original="#000000" class=""></path><path d="M6.146,12.146,4.5,13.793l-.646-.647a.5.5,0,0,0-.708.708l1,1a.5.5,0,0,0,.708,0l2-2a.5.5,0,0,0-.708-.708Z" fill="#000000" data-original="#000000" class=""></path><path d="M8.5,13h4a.5.5,0,0,0,0-1h-4a.5.5,0,0,0,0,1Z" fill="#000000" data-original="#000000" class=""></path><path d="M6.146,7.146,4.5,8.793l-.646-.647a.5.5,0,0,0-.708.708l1,1a.5.5,0,0,0,.708,0l2-2a.5.5,0,0,0-.708-.708Z" fill="#000000" data-original="#000000" class=""></path><path d="M8.5,8h8a.5.5,0,0,0,0-1h-8a.5.5,0,0,0,0,1Z" fill="#000000" data-original="#000000" class=""></path><path d="M8.5,10h8a.5.5,0,0,0,0-1h-8a.5.5,0,0,0,0,1Z" fill="#000000" data-original="#000000" class=""></path><path d="M19,13.1V4.941A1.944,1.944,0,0,0,17.059,3H15V2.28A1.289,1.289,0,0,0,13.72,1H6.28A1.289,1.289,0,0,0,5,2.28V3H2.94A1.942,1.942,0,0,0,1,4.94V21.06A1.942,1.942,0,0,0,2.94,23H18a4.941,4.941,0,0,0,3-1,5,5,0,0,0-2-8.9ZM6,2.28A.286.286,0,0,1,6.28,2h7.44a.286.286,0,0,1,.28.28V3.72a.286.286,0,0,1-.28.28H6.28A.286.286,0,0,1,6,3.72ZM2.94,22A.939.939,0,0,1,2,21.06V4.94A.939.939,0,0,1,2.94,4h2.1A1.267,1.267,0,0,0,6.28,5h7.44a1.267,1.267,0,0,0,1.24-1h2.1A.942.942,0,0,1,18,4.941V13a5,5,0,0,0-3,9ZM18,22a4,4,0,1,1,4-4A4,4,0,0,1,18,22Z" fill="#000000" data-original="#000000" class=""></path><path d="M18.5,17.793V16a.5.5,0,0,0-1,0v2a.5.5,0,0,0,.146.354l1,1a.5.5,0,0,0,.708-.708Z" fill="#000000" data-original="#000000" class=""></path><path d="M12.5,14h-4a.5.5,0,0,0,0,1h4a.5.5,0,0,0,0-1Z" fill="#000000" data-original="#000000" class=""></path><path d="M11.5,19h-3a.5.5,0,0,0,0,1h3a.5.5,0,0,0,0-1Z" fill="#000000" data-original="#000000" class=""></path><path d="M11.5,17h-3a.5.5,0,0,0,0,1h3a.5.5,0,0,0,0-1Z" fill="#000000" data-original="#000000" class=""></path></g></g></svg>